<svg xmlns="http://www.w3.org/2000/svg" width="244.258" height="244.258" viewBox="0 0 244.258 244.258">
  <path id="Icon_awesome-expand-arrows-alt" data-name="Icon awesome-expand-arrows-alt" d="M244.258,172.358v61.064a13.053,13.053,0,0,1-13.085,13.085H170.108a13.1,13.1,0,0,1-9.269-22.354l19.737-19.737L122.129,145.97l-58.464,58.5,19.753,19.682a13.1,13.1,0,0,1-9.269,22.354H13.085A13.052,13.052,0,0,1,0,233.423V172.358a13.1,13.1,0,0,1,22.354-9.269l19.731,19.737,58.486-58.447L42.08,65.877,22.354,85.669A13.1,13.1,0,0,1,0,76.4V15.335A13.053,13.053,0,0,1,13.085,2.25H74.15A13.1,13.1,0,0,1,83.419,24.6L63.682,44.341l58.447,58.447,58.464-58.5L160.84,24.6A13.1,13.1,0,0,1,170.108,2.25h61.065a13.053,13.053,0,0,1,13.085,13.085V76.4A13.1,13.1,0,0,1,221.9,85.669L202.173,65.932l-58.486,58.447,58.491,58.5L221.9,163.144A13.075,13.075,0,0,1,244.258,172.358Z" transform="translate(0 -2.25)" fill="#fff"/>
</svg>
